HIERARCHY
ROOT Hips
{
	OFFSET -21.947001 39.810204 44.525997
	CHANNELS 6 Xposition Yposition Zposition Zrotation Xrotation Yrotation
	JOINT Chest
	{
		OFFSET -0.201599 0.334099 6.453201
		CHANNELS 6 Xposition Yposition Zposition Zrotation Xrotation Yrotation
		JOINT Chest2
		{
			OFFSET 0.000000 0.000000 3.568001
			CHANNELS 6 Xposition Yposition Zposition Zrotation Xrotation Yrotation
			JOINT Neck
			{
				OFFSET 0.000000 0.000000 8.296402
				CHANNELS 6 Xposition Yposition Zposition Zrotation Xrotation Yrotation
				JOINT Head
				{
					OFFSET 0.000000 0.000000 2.173901
					CHANNELS 6 Xposition Yposition Zposition Zrotation Xrotation Yrotation
					End Site
					{
						OFFSET 0.000000 0.000000 7.891998
					}
				}
			}
			JOINT LeftCollar
			{
				OFFSET 1.927601 0.221401 6.049000
				CHANNELS 6 Xposition Yposition Zposition Zrotation Xrotation Yrotation
				JOINT LeftShoulder
				{
					OFFSET 4.959700 0.000000 0.000000
					CHANNELS 6 Xposition Yposition Zposition Zrotation Xrotation Yrotation
					JOINT LeftElbow
					{
						OFFSET 0.000000 0.000000 -8.654202
						CHANNELS 6 Xposition Yposition Zposition Zrotation Xrotation Yrotation
						JOINT LeftWrist
						{
							OFFSET 0.000000 0.000000 -13.864101
							CHANNELS 6 Xposition Yposition Zposition Zrotation Xrotation Yrotation
							End Site
							{
								OFFSET 0.000000 0.000000 -2.173901
							}
						}
					}
				}
			}
			JOINT RightCollar
			{
				OFFSET -3.155701 -0.764999 6.687801
				CHANNELS 6 Xposition Yposition Zposition Zrotation Xrotation Yrotation
				JOINT RightShoulder
				{
					OFFSET -3.592899 0.000000 0.000000
					CHANNELS 6 Xposition Yposition Zposition Zrotation Xrotation Yrotation
					JOINT RightElbow
					{
						OFFSET 0.000000 0.000000 -10.352398
						CHANNELS 6 Xposition Yposition Zposition Zrotation Xrotation Yrotation
						JOINT RightWrist
						{
							OFFSET 0.000000 0.000000 -12.750301
							CHANNELS 6 Xposition Yposition Zposition Zrotation Xrotation Yrotation
							End Site
							{
								OFFSET 0.000000 0.000000 -2.173901
							}
						}
					}
				}
			}
		}
	}
	JOINT LeftHip
	{
		OFFSET 2.460600 -0.518101 -2.735500
		CHANNELS 6 Xposition Yposition Zposition Zrotation Xrotation Yrotation
		JOINT LeftKnee
		{
			OFFSET 0.000000 -0.000004 -17.005899
			CHANNELS 6 Xposition Yposition Zposition Zrotation Xrotation Yrotation
			JOINT LeftAnkle
			{
				OFFSET 0.000000 0.000000 -19.194401
				CHANNELS 6 Xposition Yposition Zposition Zrotation Xrotation Yrotation
				End Site
				{
					OFFSET 0.000000 -8.134600 0.000000
				}
			}
		}
	}
	JOINT RightHip
	{
		OFFSET -3.115499 -0.679600 -2.320301
		CHANNELS 6 Xposition Yposition Zposition Zrotation Xrotation Yrotation
		JOINT RightKnee
		{
			OFFSET 0.000000 -0.000004 -17.680401
			CHANNELS 6 Xposition Yposition Zposition Zrotation Xrotation Yrotation
			JOINT RightAnkle
			{
				OFFSET 0.000000 0.000000 -16.993797
				CHANNELS 6 Xposition Yposition Zposition Zrotation Xrotation Yrotation
				End Site
				{
					OFFSET 0.000000 -8.842300 0.000000
				}
			}
		}
	}
}
MOTION
Frames: 9
Frame Time: 0.041667
-22.243900 11.551308 43.974396 3036.757839 -1.102834 -3.434116 -0.201604 0.334093 6.453209 26.218890 5.897469 -9.723598 0.000001 0.000002 3.568000 -18.546566 -4.329811 -4.730426 -0.000003 0.000007 8.296389 138.301318 -177.972928 192.125790 -0.000003 0.000005 2.173898 -6.659965 2.609416 -1.939538 1.927599 0.221403 6.048997 -16.590596 -0.548895 -3.162792 4.959701 0.000004 0.000002 182.294593 154.529533 134.375776 0.000006 0.000004 -8.654202 -27.637922 -52.658102 22.233854 -0.000004 -0.000004 -13.864100 4213.484905 -165.190516 185.915236 -3.155705 -0.764998 6.687792 28.755499 -1.891541 -9.781386 -3.592900 0.000004 0.000004 -0.894014 -29.928270 93.287250 -0.000003 0.000002 -10.352393 -206.070864 -135.297592 -155.598703 0.000003 0.000000 -12.750297 -43.715386 191.527971 -149.168545 2.460597 -0.518103 -2.735499 -14.035060 -1.165028 7.433400 -0.000002 -0.000001 -17.005901 190.178927 171.029071 -167.023547 -0.000002 0.000004 -19.194401 201.331738 157.454124 172.320086 -3.115499 -0.679601 -2.320297 -147.231134 -7.383289 -119.069595 0.000008 -0.000008 -17.680397 -356.204091 189.981056 -286.133891 0.000006 -0.000002 -16.993795 628.385436 30.086133 -409.892657
-22.246399 11.555401 43.972897 3036.881329 -0.803657 -3.476754 -0.201602 0.334094 6.453198 26.091514 5.619452 -9.539067 -0.000001 0.000004 3.568002 -18.227056 -4.356515 -4.638587 -0.000002 0.000002 8.296391 137.922925 -178.034140 192.075206 -0.000001 -0.000004 2.173901 -6.619830 2.594780 -1.971498 1.927600 0.221405 6.048999 -17.075106 -0.455645 -3.247057 4.959701 0.000003 0.000004 182.321095 154.469482 134.373385 -0.000001 0.000001 -8.654199 -27.419846 -52.731294 22.298182 -0.000003 -0.000009 -13.864103 4213.494084 -165.256687 185.947775 -3.155703 -0.765000 6.687802 28.288547 -2.280757 -10.124653 -3.592905 0.000006 0.000004 -0.676339 -29.488386 93.589328 -0.000010 -0.000004 -10.352391 -206.102174 -135.257061 -155.582202 0.000002 0.000002 -12.750302 -43.761848 191.446746 -149.238472 2.460598 -0.518102 -2.735503 -14.156755 -1.469161 7.404442 -0.000004 -0.000005 -17.005903 190.079288 170.981696 -167.019080 -0.000005 0.000007 -19.194403 201.285429 157.573489 172.571163 -3.115498 -0.679605 -2.320302 -147.414593 -7.130154 -119.301739 -0.000000 -0.000011 -17.680395 -356.174476 189.940826 -286.189161 0.000006 -0.000002 -16.993793 628.402757 30.179573 -409.695674
-22.249001 11.558508 43.971996 3036.835212 -0.792258 -3.492995 -0.201597 0.334099 6.453200 26.147448 5.584247 -9.580659 -0.000000 0.000000 3.568000 -18.467255 -4.325060 -4.705460 -0.000001 -0.000001 8.296393 138.160438 -177.927166 192.166348 -0.000003 -0.000001 2.173910 -6.608889 2.617291 -2.031277 1.927597 0.221404 6.048998 -16.818665 -0.518624 -3.094902 4.959701 -0.000000 0.000007 182.740796 154.652394 134.127840 0.000002 0.000005 -8.654197 -27.873717 -52.925517 22.252946 0.000002 -0.000003 -13.864103 4213.614296 -165.155518 186.395384 -3.155709 -0.764999 6.687798 28.454368 -2.115264 -9.647127 -3.592900 0.000006 0.000005 -0.737913 -29.489984 93.159696 -0.000009 -0.000010 -10.352394 -206.197605 -135.257539 -155.536494 0.000003 -0.000005 -12.750299 -43.771551 191.374756 -149.285942 2.460602 -0.518098 -2.735511 -14.102530 -1.476475 7.416466 -0.000004 -0.000001 -17.005907 189.876663 170.907111 -167.008972 -0.000005 0.000008 -19.194399 201.269610 157.748301 172.964227 -3.115491 -0.679600 -2.320302 -147.420863 -7.112360 -119.347201 -0.000001 -0.000003 -17.680397 -356.138522 189.685131 -286.260878 -0.000002 -0.000002 -16.993801 628.428275 30.293883 -409.171334
-22.252001 11.560505 43.972389 3036.777947 -0.777500 -3.495563 -0.201599 0.334100 6.453202 26.205520 5.558765 -9.584024 0.000005 0.000003 3.567994 -18.204542 -4.386102 -4.635452 -0.000004 0.000000 8.296401 137.873147 -177.985618 192.157059 -0.000004 0.000002 2.173892 -6.558028 2.608538 -2.058651 1.927596 0.221405 6.049006 -17.766075 -0.256215 -2.637840 4.959700 0.000003 0.000004 183.552769 154.790774 133.575114 0.000001 0.000004 -8.654195 -27.644351 -53.025887 22.408249 -0.000001 -0.000006 -13.864103 4213.389173 -165.192128 186.244109 -3.155705 -0.764998 6.687801 27.918168 -2.488186 -10.437481 -3.592903 0.000001 0.000004 -0.136005 -29.096852 93.994017 -0.000009 -0.000006 -10.352398 -206.193617 -135.213075 -155.530429 0.000003 -0.000007 -12.750298 -43.776523 191.287589 -149.373013 2.460603 -0.518100 -2.735507 -14.002776 -1.487991 7.412315 -0.000002 -0.000005 -17.005903 189.759375 170.793798 -166.990680 -0.000000 0.000007 -19.194397 201.179684 157.927429 173.303961 -3.115493 -0.679599 -2.320306 -147.409006 -7.087111 -119.380860 -0.000007 -0.000007 -17.680397 -356.097759 189.588334 -286.322377 -0.000002 -0.000001 -16.993793 628.505210 30.341876 -408.892471
-22.255400 11.562105 43.973392 3036.732049 -0.764886 -3.500643 -0.201599 0.334098 6.453197 26.262494 5.517961 -9.636896 0.000000 -0.000000 3.567989 -18.438412 -4.355820 -4.699757 -0.000006 -0.000001 8.296398 138.113446 -177.873876 192.274033 -0.000003 -0.000001 2.173903 -6.504891 2.625517 -2.120643 1.927595 0.221400 6.049003 -16.921497 -0.490815 -2.982006 4.959702 -0.000001 0.000003 183.018689 154.786375 133.933371 0.000000 -0.000006 -8.654201 -28.019260 -53.171325 22.408449 0.000000 -0.000001 -13.864100 4213.301309 -165.066794 186.433497 -3.155710 -0.764999 6.687801 28.214012 -2.327255 -9.698268 -3.592903 0.000000 -0.000003 -0.440112 -29.217483 93.292195 -0.000008 -0.000010 -10.352393 -206.198944 -135.222705 -155.458179 0.000002 -0.000007 -12.750299 -43.737215 191.215708 -149.436616 2.460602 -0.518101 -2.735508 -13.906457 -1.492539 7.411208 0.000000 -0.000005 -17.005905 189.838414 170.692438 -166.973345 -0.000003 0.000007 -19.194399 201.005323 158.042135 173.482707 -3.115490 -0.679599 -2.320308 -147.402818 -7.067960 -119.418017 0.000003 -0.000008 -17.680391 -356.024949 189.636801 -286.378111 0.000000 -0.000003 -16.993792 628.467562 30.308985 -409.013967
-22.259802 11.564106 43.975094 3036.686587 -0.751384 -3.501905 -0.201604 0.334102 6.453201 26.308741 5.486757 -9.643532 0.000002 0.000006 3.567998 -18.203267 -4.417964 -4.636574 0.000006 -0.000002 8.296388 137.876220 -177.926838 192.298321 -0.000006 0.000001 2.173896 -6.437617 2.588532 -2.138232 1.927605 0.221398 6.048995 -17.235234 -0.399571 -3.005457 4.959699 -0.000001 -0.000001 182.918832 154.748331 133.957181 0.000003 -0.000001 -8.654196 -27.785112 -53.224741 22.556450 0.000002 -0.000000 -13.864097 4213.274207 -165.049363 186.694752 -3.155698 -0.765000 6.687794 27.715719 -2.655774 -10.588197 -3.592903 0.000003 0.000002 0.244545 -28.994208 94.272942 -0.000004 0.000000 -10.352399 -206.078077 -135.191765 -155.445284 0.000002 -0.000007 -12.750302 -43.709645 191.222156 -149.496571 2.460600 -0.518098 -2.735507 -13.781653 -1.501249 7.408236 -0.000005 -0.000004 -17.005898 189.994908 170.563716 -166.963961 -0.000001 0.000007 -19.194405 200.685725 158.140230 173.639856 -3.115494 -0.679596 -2.320306 -147.393911 -7.047163 -119.452277 -0.000002 -0.000010 -17.680395 -355.976428 189.940895 -286.373767 0.000001 -0.000006 -16.993792 628.319702 30.246072 -409.489402
-22.264198 11.566801 43.976501 3036.647463 -0.738138 -3.493581 -0.201598 0.334099 6.453202 26.362063 5.434058 -9.716936 0.000003 0.000005 3.567997 -18.472366 -4.392675 -4.711195 0.000006 0.000003 8.296403 138.172063 -177.794701 192.457970 -0.000002 0.000002 2.173905 -6.394937 2.585500 -2.165562 1.927604 0.221404 6.049002 -16.851764 -0.464676 -2.899321 4.959700 -0.000001 0.000006 183.025232 154.888787 133.875164 0.000000 -0.000004 -8.654202 -28.088210 -53.331920 22.571701 -0.000001 0.000003 -13.864096 4213.192026 -165.005295 186.732700 -3.155701 -0.765000 6.687801 28.034916 -2.452801 -10.464175 -3.592899 0.000002 0.000008 0.351116 -29.132929 94.378891 -0.000006 0.000000 -10.352394 -206.162758 -135.253073 -155.441213 0.000002 -0.000011 -12.750294 -43.619760 191.284065 -149.523605 2.460599 -0.518101 -2.735507 -13.652117 -1.510059 7.390572 -0.000005 0.000000 -17.005894 190.445454 170.461755 -166.952076 -0.000001 0.000003 -19.194403 200.443253 158.108675 173.418517 -3.115490 -0.679600 -2.320292 -147.382532 -7.024897 -119.477740 -0.000003 -0.000008 -17.680399 -355.913808 189.980564 -286.398957 -0.000002 -0.000002 -16.993793 628.220036 30.217846 -409.696193
-22.268801 11.570004 43.977493 3036.618831 -0.728652 -3.485049 -0.201604 0.334098 6.453198 26.397957 5.390829 -9.761875 -0.000002 0.000003 3.567993 -18.451872 -4.406250 -4.705235 -0.000002 0.000003 8.296403 138.184890 -177.745523 192.546393 -0.000003 0.000000 2.173903 -6.363099 2.547507 -2.166738 1.927602 0.221404 6.049003 -16.829846 -0.447076 -2.917107 4.959708 0.000000 -0.000003 182.863275 154.886998 133.951471 -0.000002 0.000002 -8.654198 -28.001122 -53.344317 22.656904 -0.000001 -0.000000 -13.864100 4213.254536 -164.983616 186.748956 -3.155702 -0.764999 6.687802 28.092945 -2.475271 -10.959611 -3.592897 0.000002 0.000001 0.656980 -28.913092 95.150156 -0.000008 0.000000 -10.352407 -206.459256 -135.298807 -155.486142 0.000002 -0.000007 -12.750292 -43.475230 191.557887 -149.537225 2.460600 -0.518102 -2.735502 -13.542583 -1.520875 7.365518 -0.000002 -0.000001 -17.005894 190.803001 170.378454 -166.915739 -0.000003 0.000008 -19.194401 200.247705 158.066533 173.166046 -3.115495 -0.679605 -2.320301 -147.371467 -7.008423 -119.493463 -0.000007 -0.000005 -17.680395 -355.856189 190.159338 -286.396853 0.000002 -0.000002 -16.993797 628.189819 30.166811 -410.091825
-22.273396 11.574905 43.976994 3036.621891 -0.729478 -3.491393 -0.201599 0.334099 6.453205 26.407209 5.352682 -9.828262 0.000005 0.000007 3.567994 -18.690705 -4.386120 -4.772024 -0.000002 -0.000003 8.296390 138.492986 -177.604958 192.694909 -0.000003 0.000001 2.173907 -6.367964 2.507203 -2.172715 1.927601 0.221400 6.048996 -16.443587 -0.504446 -2.839237 4.959702 -0.000001 0.000002 182.814057 154.961146 133.944190 -0.000005 -0.000001 -8.654201 -28.212380 -53.400492 22.658441 0.000000 -0.000001 -13.864099 4213.399227 -164.883102 186.985991 -3.155699 -0.765000 6.687797 28.478318 -2.236453 -11.017262 -3.592905 0.000001 0.000008 0.789029 -28.880284 95.525434 -0.000009 -0.000002 -10.352397 -206.732081 -135.309189 -155.440981 0.000002 -0.000007 -12.750298 -43.115818 191.993776 -149.653638 2.460599 -0.518101 -2.735502 -13.480407 -1.530174 7.350987 -0.000007 -0.000004 -17.005898 189.906662 170.426320 -166.816620 -0.000005 0.000003 -19.194401 201.000514 158.216332 173.537157 -3.115494 -0.679602 -2.320304 -147.392641 -7.007197 -119.514595 -0.000002 -0.000010 -17.680397 -355.772751 190.260711 -286.404804 0.000003 -0.000002 -16.993793 628.341887 30.217699 -410.080596
